<svg width="6" height="6" viewBox="0 0 6 6" fill="none" xmlns="http://www.w3.org/2000/svg">
<g opacity="0.7">
<path d="M2.4345 4.98238C2.4055 4.95413 2.2815 4.84746 2.1795 4.74809C1.538 4.16553 0.488 2.6458 0.1675 1.85038C0.116 1.72958 0.007 1.42418 0 1.261C0 1.10464 0.036 0.955594 0.109 0.813363C0.211 0.636062 0.3715 0.493831 0.561 0.415896C0.6925 0.365726 1.086 0.287791 1.093 0.287791C1.5235 0.209856 2.223 0.166992 2.996 0.166992C3.7325 0.166992 4.4035 0.209856 4.8405 0.273665C4.8475 0.280972 5.3365 0.358906 5.504 0.444148C5.81 0.600504 6 0.905911 6 1.23275V1.261C5.9925 1.47386 5.8025 1.9215 5.7955 1.9215C5.4745 2.67406 4.476 4.15871 3.8125 4.7554C3.8125 4.7554 3.642 4.92345 3.5355 4.99651C3.3825 5.11049 3.193 5.16699 3.0035 5.16699C2.792 5.16699 2.595 5.10318 2.4345 4.98238Z" fill="#06152B"/>
</g>
</svg>
