<svg width="16" height="16" viewBox="0 0 16 16" fill="none" xmlns="http://www.w3.org/2000/svg">
<path fill-rule="evenodd" clip-rule="evenodd" d="M3.33301 14.6673C2.22844 14.6673 1.33301 13.7719 1.33301 12.6673V4.66732C1.33301 3.56275 2.22844 2.66732 3.33301 2.66732H3.99967V2.00065C3.99967 1.63246 4.29815 1.33398 4.66634 1.33398C5.03453 1.33398 5.33301 1.63246 5.33301 2.00065V2.66732H10.6663V2.00065C10.6663 1.63246 10.9648 1.33398 11.333 1.33398C11.7012 1.33398 11.9997 1.63246 11.9997 2.00065V2.66732H12.6663C13.7709 2.66732 14.6663 3.56275 14.6663 4.66732V12.6673C14.6663 13.7719 13.7709 14.6673 12.6663 14.6673H3.33301ZM5.33301 11.334H2.66634V12.6673C2.66634 13.0355 2.96482 13.334 3.33301 13.334H5.33301V11.334ZM9.33301 11.334H6.66634V13.334H9.33301V11.334ZM13.333 11.334H10.6663V13.334H12.6663C13.0345 13.334 13.333 13.0355 13.333 12.6673V11.334ZM5.33301 8.00065H2.66634V10.0007H5.33301V8.00065ZM9.33301 8.00065H6.66634V10.0007H9.33301V8.00065ZM13.333 8.00065H10.6663V10.0007H13.333V8.00065ZM3.99967 4.00065H3.33301C2.96482 4.00065 2.66634 4.29913 2.66634 4.66732V6.66732H13.333V4.66732C13.333 4.29913 13.0345 4.00065 12.6663 4.00065H11.9997V4.66732C11.9997 5.03551 11.7012 5.33398 11.333 5.33398C10.9648 5.33398 10.6663 5.03551 10.6663 4.66732V4.00065H5.33301V4.66732C5.33301 5.03551 5.03453 5.33398 4.66634 5.33398C4.29815 5.33398 3.99967 5.03551 3.99967 4.66732V4.00065Z" fill="#2FE6A7"/>
</svg>
