<svg width="60" height="60" viewBox="0 0 60 60" fill="none" xmlns="http://www.w3.org/2000/svg">
<path d="M20.625 50.625C21.6605 50.625 22.5 49.7855 22.5 48.75C22.5 47.7145 21.6605 46.875 20.625 46.875C19.5895 46.875 18.75 47.7145 18.75 48.75C18.75 49.7855 19.5895 50.625 20.625 50.625Z" stroke="#AA182C" stroke-width="3.5" stroke-linecap="round" stroke-linejoin="round"/>
<path d="M46.875 50.625C47.9105 50.625 48.75 49.7855 48.75 48.75C48.75 47.7145 47.9105 46.875 46.875 46.875C45.8395 46.875 45 47.7145 45 48.75C45 49.7855 45.8395 50.625 46.875 50.625Z" stroke="#AA182C" stroke-width="3.5" stroke-linecap="round" stroke-linejoin="round"/>
<path d="M5.625 9.375H13.125L18.75 41.25H48.75" stroke="#AA182C" stroke-width="3.5" stroke-linecap="round" stroke-linejoin="round"/>
<path d="M18.75 33.75H47.9813C48.1981 33.7502 48.4082 33.6751 48.576 33.5378C48.7437 33.4004 48.8586 33.2091 48.9012 32.9965L52.2762 16.1215C52.3034 15.9854 52.3001 15.845 52.2665 15.7104C52.2328 15.5757 52.1698 15.4502 52.0817 15.3429C51.9937 15.2356 51.883 15.1492 51.7575 15.0899C51.6321 15.0306 51.495 14.9999 51.3562 15H15" stroke="#AA182C" stroke-width="3.5" stroke-linecap="round" stroke-linejoin="round"/>
</svg>
