<svg width="20" height="20" viewBox="0 0 20 20" fill="none" xmlns="http://www.w3.org/2000/svg">
<path fill-rule="evenodd" clip-rule="evenodd" d="M15.8334 3.33301C17.2141 3.33301 18.3334 4.4523 18.3334 5.83301V14.1663C18.3334 15.5471 17.2141 16.6663 15.8334 16.6663H4.16675C2.78604 16.6663 1.66675 15.5471 1.66675 14.1663V5.83301C1.66675 4.4523 2.78604 3.33301 4.16675 3.33301H15.8334ZM16.6667 6.10634L10.5488 11.4602C10.2608 11.7122 9.84263 11.7332 9.53292 11.5232L9.45133 11.4602L3.33341 6.10717V14.1663C3.33341 14.6266 3.70651 14.9997 4.16675 14.9997H15.8334C16.2937 14.9997 16.6667 14.6266 16.6667 14.1663V6.10634ZM15.4001 4.99967H4.59841L10.0001 9.7257L15.4001 4.99967Z" fill="#3A36DB"/>
</svg>
