<svg width="14" height="14" viewBox="0 0 14 14" fill="none" xmlns="http://www.w3.org/2000/svg">
<g clip-path="url(#clip0_1222_36605)">
<path d="M7 11.6428H13.5" stroke="black" stroke-linecap="round" stroke-linejoin="round"/>
<path d="M11.6428 9.78564L13.5 11.6428L11.6428 13.4999" stroke="black" stroke-linecap="round" stroke-linejoin="round"/>
<path d="M4.67901 3.286C5.44834 3.286 6.07201 2.66233 6.07201 1.893C6.07201 1.12367 5.44834 0.5 4.67901 0.5C3.90968 0.5 3.28601 1.12367 3.28601 1.893C3.28601 2.66233 3.90968 3.286 4.67901 3.286Z" stroke="black" stroke-linecap="round" stroke-linejoin="round"/>
<path d="M8.393 7.92894C9.16233 7.92894 9.786 7.30528 9.786 6.53594C9.786 5.76661 9.16233 5.14294 8.393 5.14294C7.62367 5.14294 7 5.76661 7 6.53594C7 7.30528 7.62367 7.92894 8.393 7.92894Z" stroke="black" stroke-linecap="round" stroke-linejoin="round"/>
<path d="M5.60699 13.036C6.37632 13.036 6.99999 12.4123 6.99999 11.643C6.99999 10.8737 6.37632 10.25 5.60699 10.25C4.83766 10.25 4.21399 10.8737 4.21399 11.643C4.21399 12.4123 4.83766 13.036 5.60699 13.036Z" stroke="black" stroke-linecap="round" stroke-linejoin="round"/>
<path d="M7.00003 6.53613H3.05358C1.64328 6.53613 0.5 7.67941 0.5 9.08971C0.5 10.5 1.64328 11.6433 3.05358 11.6433H4.2143" stroke="black" stroke-linecap="round" stroke-linejoin="round"/>
<path d="M9.78571 6.53594H11.1786C12.4607 6.53594 13.5 5.4966 13.5 4.2145C13.5 2.93241 12.4607 1.89307 11.1786 1.89307H6.07141" stroke="black" stroke-linecap="round" stroke-linejoin="round"/>
<path d="M3.28573 1.89307H0.5" stroke="black" stroke-linecap="round" stroke-linejoin="round"/>
</g>
<defs>
<clipPath id="clip0_1222_36605">
<rect width="14" height="14" fill="white"/>
</clipPath>
</defs>
</svg>
