<svg width="64" height="65" viewBox="0 0 64 65" fill="none" xmlns="http://www.w3.org/2000/svg">
<g clip-path="url(#clip0_1_862)">
<path d="M10.6667 29.8333H29.3333V11.1667H10.6667V29.8333ZM16 16.5H24V24.5H16V16.5ZM53.3333 11.1667H34.6667V29.8333H53.3333V11.1667ZM48 24.5H40V16.5H48V24.5ZM10.6667 53.8333H29.3333V35.1667H10.6667V53.8333ZM16 40.5H24V48.5H16V40.5ZM8 59.1667H18.6667V64.5H8C3.58933 64.5 0 60.9107 0 56.5V45.8333H5.33333V56.5C5.33333 57.9693 6.53067 59.1667 8 59.1667ZM58.6667 45.8333H64V56.5C64 60.9107 60.4107 64.5 56 64.5H45.3333V59.1667H56C57.4693 59.1667 58.6667 57.9693 58.6667 56.5V45.8333ZM64 8.5V19.1667H58.6667V8.5C58.6667 7.03067 57.4693 5.83333 56 5.83333H45.3333V0.5H56C60.4107 0.5 64 4.08933 64 8.5ZM5.33333 19.1667H0V8.5C0 4.08933 3.58933 0.5 8 0.5H18.6667V5.83333H8C6.53067 5.83333 5.33333 7.03067 5.33333 8.5V19.1667ZM34.6667 45.8333H42.6667V53.8333H34.6667V45.8333ZM45.3333 43.1667V35.1667H53.3333V43.1667H45.3333ZM34.6667 35.1667H42.6667V43.1667H34.6667V35.1667Z" 
fill="#B99674"/>
</g>
<defs>
<clipPath id="clip0_1_862">
<rect width="64" height="64" fill="white" transform="translate(0 0.5)"/>
</clipPath>
</defs>
</svg>
