<svg width="136" height="137" viewBox="0 0 136 137" fill="none" xmlns="http://www.w3.org/2000/svg">
<path fill-rule="evenodd" clip-rule="evenodd" d="M26.0615 134.841C29.5024 137.279 32.8717 137.207 36.1692 134.626L67.9978 110.325L99.8264 134.626C103.124 137.207 106.493 137.279 109.934 134.841C113.375 132.404 114.522 129.178 113.375 125.164L101.117 85.378L132.3 63.227C135.741 60.7897 136.782 57.5638 135.423 53.5494C134.058 49.535 131.296 47.5278 127.139 47.5278H88.6433L76.17 6.23668C75.4531 4.22947 74.3406 2.68679 72.8323 1.60863C71.3298 0.536213 69.7183 0 67.9978 0C66.2773 0 64.6658 0.536213 63.1633 1.60863C61.655 2.68679 60.5425 4.22947 59.8256 6.23668L47.3522 47.5278H8.85689C4.69911 47.5278 1.94063 49.535 0.581467 53.5494C-0.783433 57.5638 0.254579 60.7897 3.6955 63.227L34.8789 85.378L22.6206 125.164C21.4736 129.178 22.6206 132.404 26.0615 134.841ZM93.2838 72.1022C91.2391 74.2868 87.5943 77.6354 82.1465 80.1617C80.5711 80.8924 75.158 83.2561 68.1214 83.4814C58.898 83.7767 49.5514 80.5498 42.2863 73.735L42.2999 73.7205C41.7342 73.1807 41.2355 72.6662 40.794 72.19C40.794 72.19 43.6722 66.1463 45.355 67.9616C45.9444 68.5973 47.247 69.7739 48.691 71.0347C54.3389 75.4179 61.1635 77.4814 67.9223 77.2651C73.7432 77.0786 78.2696 75.1039 79.5298 74.5194L79.5299 74.5193C84.0346 72.4304 87.0514 69.6593 88.7429 67.8521C90.4344 66.0448 93.2838 72.1022 93.2838 72.1022Z" fill="#E7B66B"/>
</svg>
